<svg width="188" height="188" viewBox="0 0 188 188" fill="none" xmlns="http://www.w3.org/2000/svg">
<path d="M150.4 0H37.6C16.8341 0 0 16.8341 0 37.6V150.4C0 171.166 16.8341 188 37.6 188H150.4C171.166 188 188 171.166 188 150.4V37.6C188 16.8341 171.166 0 150.4 0Z" fill="black"/>
<mask id="mask0_11_11" style="mask-type:alpha" maskUnits="userSpaceOnUse" x="0" y="0" width="188" height="188">
<path d="M150.4 0H37.6C16.8341 0 0 16.8341 0 37.6V150.4C0 171.166 16.8341 188 37.6 188H150.4C171.166 188 188 171.166 188 150.4V37.6C188 16.8341 171.166 0 150.4 0Z" fill="black"/>
</mask>
<g mask="url(#mask0_11_11)">
<path d="M67.7282 92.736C57.4468 92.736 48.3005 91.0672 40.2891 87.729C32.3222 84.3462 26.0689 79.7396 21.5292 73.9091C16.9894 68.0786 14.7195 61.4694 14.7195 54.0812C14.7195 48.3842 16.0102 43.1545 18.5917 38.3923C21.2176 33.5855 24.7782 29.602 29.2735 26.442C33.7688 23.2375 38.7981 21.1901 44.3616 20.3V19.3653C37.0623 17.8965 31.1428 14.3581 26.603 8.75023C22.0633 3.09775 19.7934 -3.46712 19.7934 -10.9444C19.7934 -18.0211 21.863 -24.3189 26.0022 -29.8378C30.1414 -35.4013 35.8161 -39.763 43.0263 -42.9231C50.2811 -46.1277 58.515 -47.7299 67.7282 -47.7299C76.9408 -47.7299 85.1527 -46.1277 92.3631 -42.9231C99.6174 -39.7185 105.314 -35.3345 109.454 -29.7711C113.593 -24.2522 115.685 -17.9766 115.73 -10.9444C115.685 -3.42261 113.371 3.14225 108.786 8.75023C104.202 14.3581 98.3271 17.8965 91.1612 19.3653V20.3C96.6357 21.1901 101.598 23.2375 106.049 26.442C110.545 29.602 114.105 33.5855 116.731 38.3923C119.401 43.1545 120.759 48.3842 120.803 54.0812C120.759 61.4694 118.467 68.0786 113.927 73.9091C109.387 79.7396 103.112 84.3462 95.1004 87.729C87.1336 91.0672 78.0093 92.736 67.7282 92.736ZM67.7282 71.5058C72.3123 71.5058 76.3179 70.6824 79.7452 69.0355C83.1724 67.3441 85.8426 65.0298 87.7565 62.0925C89.7148 59.1105 90.6937 55.6834 90.6937 51.8113C90.6937 47.8501 89.6922 44.3562 87.6894 41.3298C85.6866 38.2587 82.9719 35.8553 79.5446 34.1195C76.1174 32.3392 72.1788 31.4491 67.7282 31.4491C63.3215 31.4491 59.3828 32.3392 55.9113 34.1195C52.4397 35.8553 49.7025 38.2587 47.6996 41.3298C45.7413 44.3562 44.7621 47.8501 44.7621 51.8113C44.7621 55.6834 45.7191 59.1105 47.6328 62.0925C49.5467 65.0298 52.2394 67.3441 55.711 69.0355C59.1825 70.6824 63.188 71.5058 67.7282 71.5058ZM67.7282 10.4192C71.5559 10.4192 74.9606 9.64035 77.9423 8.08258C80.9246 6.52481 83.2614 4.36622 84.9521 1.60675C86.6435 -1.15272 87.4895 -4.33502 87.4895 -7.94016C87.4895 -11.5008 86.6435 -14.6163 84.9521 -17.2867C83.2614 -20.0017 80.9465 -22.1158 78.0093 -23.6291C75.0715 -25.1868 71.6449 -25.9657 67.7282 -25.9657C63.856 -25.9657 60.4288 -25.1868 57.4468 -23.6291C54.4648 -22.1158 52.1281 -20.0017 50.4368 -17.2867C48.79 -14.6163 47.9667 -11.5008 47.9667 -7.94016C47.9667 -4.33502 48.8123 -1.15272 50.5036 1.60675C52.1949 4.36622 54.5316 6.52481 57.5135 8.08258C60.4955 9.64035 63.9005 10.4192 67.7282 10.4192Z" fill="white"/>
<path d="M79.3893 227.48V206.65L128.058 161.587C132.197 157.581 135.669 153.976 138.473 150.771C141.321 147.567 143.48 144.429 144.949 141.358C146.418 138.242 147.152 134.882 147.152 131.277C147.152 127.271 146.24 123.822 144.415 120.929C142.59 117.991 140.098 115.743 136.937 114.186C133.777 112.584 130.194 111.782 126.189 111.782C122.005 111.782 118.355 112.628 115.24 114.32C112.124 116.011 109.721 118.436 108.03 121.596C106.338 124.757 105.492 128.517 105.492 132.879H78.0538C78.0538 123.933 80.0792 116.166 84.1294 109.58C88.1795 102.992 93.854 97.896 101.153 94.2907C108.453 90.6862 116.865 88.8832 126.389 88.8832C136.181 88.8832 144.704 90.6191 151.959 94.0908C159.258 97.5181 164.932 102.28 168.983 108.378C173.033 114.475 175.058 121.463 175.058 129.341C175.058 134.504 174.034 139.6 171.987 144.629C169.984 149.659 166.401 155.244 161.238 161.386C156.076 167.484 148.799 174.805 139.408 183.351L119.446 202.912V203.846H176.86V227.48H79.3893Z" fill="white"/>
</g>
</svg>
