<svg width="670" height="189" viewBox="0 0 670 189" fill="none" xmlns="http://www.w3.org/2000/svg">
<path d="M150.4 1H37.6C16.8341 1 0 17.8341 0 38.6V151.4C0 172.166 16.8341 189 37.6 189H150.4C171.166 189 188 172.166 188 151.4V38.6C188 17.8341 171.166 1 150.4 1Z" fill="black"/>
<mask id="mask0_32_3" style="mask-type:alpha" maskUnits="userSpaceOnUse" x="0" y="1" width="188" height="188">
<path d="M150.4 1H37.6C16.8341 1 0 17.8341 0 38.6V151.4C0 172.166 16.8341 189 37.6 189H150.4C171.166 189 188 172.166 188 151.4V38.6C188 17.8341 171.166 1 150.4 1Z" fill="black"/>
</mask>
<g mask="url(#mask0_32_3)">
<path d="M67.7282 93.736C57.4468 93.736 48.3005 92.0672 40.2891 88.729C32.3222 85.3462 26.0689 80.7396 21.5292 74.9091C16.9894 69.0786 14.7195 62.4694 14.7195 55.0812C14.7195 49.3842 16.0102 44.1545 18.5917 39.3923C21.2176 34.5855 24.7782 30.602 29.2735 27.442C33.7688 24.2375 38.7981 22.1901 44.3616 21.3V20.3653C37.0623 18.8965 31.1428 15.3581 26.603 9.75023C22.0633 4.09775 19.7934 -2.46712 19.7934 -9.9444C19.7934 -17.0211 21.863 -23.3189 26.0022 -28.8378C30.1414 -34.4013 35.8161 -38.763 43.0263 -41.9231C50.2811 -45.1277 58.515 -46.7299 67.7282 -46.7299C76.9408 -46.7299 85.1527 -45.1277 92.3631 -41.9231C99.6174 -38.7185 105.314 -34.3345 109.454 -28.7711C113.593 -23.2522 115.685 -16.9766 115.73 -9.9444C115.685 -2.42261 113.371 4.14225 108.786 9.75023C104.202 15.3581 98.3271 18.8965 91.1612 20.3653V21.3C96.6357 22.1901 101.598 24.2375 106.049 27.442C110.545 30.602 114.105 34.5855 116.731 39.3923C119.401 44.1545 120.759 49.3842 120.803 55.0812C120.759 62.4694 118.467 69.0786 113.927 74.9091C109.387 80.7396 103.112 85.3462 95.1004 88.729C87.1336 92.0672 78.0093 93.736 67.7282 93.736ZM67.7282 72.5058C72.3123 72.5058 76.3179 71.6824 79.7452 70.0355C83.1724 68.3441 85.8426 66.0298 87.7565 63.0925C89.7148 60.1105 90.6937 56.6834 90.6937 52.8113C90.6937 48.8501 89.6922 45.3562 87.6894 42.3298C85.6866 39.2587 82.9719 36.8553 79.5446 35.1195C76.1174 33.3392 72.1788 32.4491 67.7282 32.4491C63.3215 32.4491 59.3828 33.3392 55.9113 35.1195C52.4397 36.8553 49.7025 39.2587 47.6996 42.3298C45.7413 45.3562 44.7621 48.8501 44.7621 52.8113C44.7621 56.6834 45.7191 60.1105 47.6328 63.0925C49.5467 66.0298 52.2394 68.3441 55.711 70.0355C59.1825 71.6824 63.188 72.5058 67.7282 72.5058ZM67.7282 11.4192C71.5559 11.4192 74.9606 10.6403 77.9423 9.08258C80.9246 7.52481 83.2614 5.36622 84.9521 2.60675C86.6435 -0.152724 87.4895 -3.33502 87.4895 -6.94016C87.4895 -10.5008 86.6435 -13.6163 84.9521 -16.2867C83.2614 -19.0017 80.9465 -21.1158 78.0093 -22.6291C75.0715 -24.1868 71.6449 -24.9657 67.7282 -24.9657C63.856 -24.9657 60.4288 -24.1868 57.4468 -22.6291C54.4648 -21.1158 52.1281 -19.0017 50.4368 -16.2867C48.79 -13.6163 47.9667 -10.5008 47.9667 -6.94016C47.9667 -3.33502 48.8123 -0.152724 50.5036 2.60675C52.1949 5.36622 54.5316 7.52481 57.5135 9.08258C60.4955 10.6403 63.9005 11.4192 67.7282 11.4192Z" fill="white"/>
<path d="M79.3893 228.48V207.65L128.058 162.587C132.197 158.581 135.669 154.976 138.473 151.771C141.321 148.567 143.48 145.429 144.949 142.358C146.418 139.242 147.152 135.882 147.152 132.277C147.152 128.271 146.24 124.822 144.415 121.929C142.59 118.991 140.098 116.743 136.937 115.186C133.777 113.584 130.194 112.782 126.189 112.782C122.005 112.782 118.355 113.628 115.24 115.32C112.124 117.011 109.721 119.436 108.03 122.596C106.338 125.757 105.492 129.517 105.492 133.879H78.0538C78.0538 124.933 80.0792 117.166 84.1294 110.58C88.1795 103.992 93.854 98.896 101.153 95.2907C108.453 91.6862 116.865 89.8832 126.389 89.8832C136.181 89.8832 144.704 91.6191 151.959 95.0908C159.258 98.5181 164.932 103.28 168.983 109.378C173.033 115.475 175.058 122.463 175.058 130.341C175.058 135.504 174.034 140.6 171.987 145.629C169.984 150.659 166.401 156.244 161.238 162.386C156.076 168.484 148.799 175.805 139.408 184.351L119.446 203.912V204.846H176.86V228.48H79.3893Z" fill="white"/>
</g>
<path d="M221.323 119.986H238.373C239.607 131.019 250.331 138.271 264.989 138.271C279.03 138.271 289.137 131.019 289.137 121.066C289.137 112.426 283.042 107.257 268.615 103.708L254.188 100.236C233.744 95.2988 224.255 85.7324 224.255 70.2256C224.255 51.0156 240.996 37.8232 264.758 37.8232C288.288 37.8232 304.412 51.0156 304.952 70.2256H288.134C287.131 59.1162 277.95 52.4043 264.526 52.4043C251.103 52.4043 241.922 59.1934 241.922 69.0684C241.922 76.9375 247.785 81.5664 262.135 85.1152L274.401 88.124C297.237 93.5244 306.727 102.705 306.727 118.983C306.727 139.813 290.14 152.852 263.755 152.852C239.067 152.852 222.403 140.122 221.323 119.986ZM325.551 48.3926H342.215V67.2168H358.262V80.4092H342.215V127.238C342.215 134.49 345.455 137.885 352.476 137.885C354.25 137.885 357.104 137.653 358.185 137.499V150.691C356.333 151.154 352.398 151.54 348.772 151.54C332.031 151.54 325.551 145.137 325.551 128.936V80.4092H313.979V67.2168H325.551V48.3926ZM443.819 67.2168V151H427.85V136.65H427.541C422.681 146.603 414.194 151.926 401.388 151.926C383.104 151.926 371.994 140.122 371.994 120.912V67.2168H388.735V117.749C388.735 130.633 394.83 137.499 406.942 137.499C419.44 137.499 427.078 128.781 427.078 115.512V67.2168H443.819ZM492.5 151.849C471.516 151.849 457.166 134.953 457.166 109.031C457.166 83.2637 471.516 66.3682 492.346 66.3682C504.381 66.3682 513.947 71.8457 518.73 81.1035H519.116V34.6602H535.78V151H519.579V136.805H519.271C514.333 146.294 504.767 151.849 492.5 151.849ZM496.743 80.5635C483.242 80.5635 474.293 91.8271 474.293 109.108C474.293 126.467 483.165 137.653 496.743 137.653C510.167 137.653 519.193 126.235 519.193 109.108C519.193 92.0586 510.167 80.5635 496.743 80.5635ZM554.142 151V67.2168H570.883V151H554.142ZM562.551 55.2588C557.15 55.2588 552.753 50.9385 552.753 45.6152C552.753 40.1377 557.15 35.9717 562.551 35.9717C567.951 35.9717 572.349 40.1377 572.349 45.6152C572.349 50.9385 567.951 55.2588 562.551 55.2588ZM624.578 152.003C600.354 152.003 584.924 135.493 584.924 109.108C584.924 82.8008 600.431 66.1367 624.578 66.1367C648.726 66.1367 664.155 82.7236 664.155 109.108C664.155 135.493 648.803 152.003 624.578 152.003ZM624.578 138.116C638.773 138.116 647.183 127.393 647.183 109.108C647.183 90.8242 638.773 80.0234 624.578 80.0234C610.383 80.0234 601.896 90.9014 601.896 109.108C601.896 127.393 610.383 138.116 624.578 138.116Z" fill="black"/>
</svg>
